# xmcd
# 
# Track frame offsets:
#     150
#     11659
#     23850
#     33596
#     46626
#     61698
#     74260
#     87914
#     100065
#     112619
#     128104
#     139097
#     155498
#     170602
#     191555
#     207565
#     222788
# 
# Disc length: 3184
# 
# Revision: 5
# Processed by: cddbd v1.5.2PL0 Copyright (c) Steve Scherf et al.
# Submitted via: fre:ac v1.0.31
# 
DISCID=e10c6e11
DTITLE=Neil Diamond - 50th Anniversary Collection Disc 1
DYEAR=2017
DGENRE=Rock/Pop
TTITLE0=Solitary Man
TTITLE1=Cherry, Cherry
TTITLE2=I Got The Feelin' (Oh No, No)
TTITLE3=You Got To Me
TTITLE4=Girl, You'll Be A Woman Soon
TTITLE5=I'm A Believer
TTITLE6=Thank The Lord For The Night Time
TTITLE7=Red, Red Wine
TTITLE8=Sunday Sun
TTITLE9=Shilo
TTITLE10=Kentucky Woman
TTITLE11=Brooklyn Roads
TTITLE12=Glory Road
TTITLE13=Holly Holy
TTITLE14=And The Grass Won't Pay No Mind
TTITLE15=Sweet Caroline
TTITLE16=Brother Love's Travelling Salvation Show
EXTD=
EXTT0=
EXTT1=
EXTT2=
EXTT3=
EXTT4=
EXTT5=
EXTT6=
EXTT7=
EXTT8=
EXTT9=
EXTT10=
EXTT11=
EXTT12=
EXTT13=
EXTT14=
EXTT15=
EXTT16=
PLAYORDER=
